<?xml version="1.0" encoding="UTF-8" standalone="no"?>
<!-- Created with Inkscape (http://www.inkscape.org/) -->

<svg
   width="17mm"
   height="17mm"
   viewBox="0 0 17.000001 17"
   version="1.1"
   id="svg5"
   sodipodi:docname="favicon_fmv.svg"
   inkscape:version="1.1 (ce6663b3b7, 2021-05-25)"
   inkscape:export-filename="/home/bastien/Documents/Projets/fullmethanevachette/favicon_fmv.png"
   inkscape:export-xdpi="200"
   inkscape:export-ydpi="200"
   xmlns:inkscape="http://www.inkscape.org/namespaces/inkscape"
   xmlns:sodipodi="http://sodipodi.sourceforge.net/DTD/sodipodi-0.dtd"
   xmlns="http://www.w3.org/2000/svg"
   xmlns:svg="http://www.w3.org/2000/svg">
  <sodipodi:namedview
     id="namedview7"
     pagecolor="#ffffff"
     bordercolor="#666666"
     borderopacity="1.0"
     inkscape:pageshadow="2"
     inkscape:pageopacity="0.0"
     inkscape:pagecheckerboard="0"
     inkscape:document-units="mm"
     showgrid="false"
     inkscape:snap-global="true"
     fit-margin-top="0"
     fit-margin-left="0"
     fit-margin-right="0"
     fit-margin-bottom="0"
     inkscape:zoom="8.5065502"
     inkscape:cx="39.087526"
     inkscape:cy="28.625"
     inkscape:window-width="1920"
     inkscape:window-height="1052"
     inkscape:window-x="1920"
     inkscape:window-y="0"
     inkscape:window-maximized="1"
     inkscape:current-layer="g3724" />
  <defs
     id="defs2" />
  <g
     inkscape:label="Calque 1"
     inkscape:groupmode="layer"
     id="layer1"
     transform="translate(-95.052835,-118.37487)">
    <g
       id="g854"
       transform="matrix(0.26458333,0,0,0.24734108,95.342971,120.68129)"
       style="stroke-width:1.03427">
      <g
         id="g834"
         style="stroke-width:1.03427">
        <g
           id="g832"
           style="stroke-width:1.03427">
          <g
             id="g3724"
             transform="translate(3.0606922)">
            <path
               style="fill:#666666;stroke:none;stroke-width:1.00157;stroke-linecap:round;stroke-linejoin:round;stroke-miterlimit:4;stroke-dasharray:none;stroke-opacity:1;paint-order:fill markers stroke"
               d="m 40.61061,41.085656 c -0.04886,6.475753 -0.007,12.966605 -0.02094,19.44816 0.02792,0.555666 -0.05461,1.136973 0.0388,1.677436 0.364832,-0.08159 0.585847,-0.56031 0.886688,-0.801184 0.555168,-0.620536 1.170265,-1.204056 1.685153,-1.850535 0,-6.137557 0,-12.275113 0,-18.41267 -0.352442,-0.236478 -0.946273,-0.03189 -1.388447,-0.100009 -0.394144,0.02722 -0.823591,-0.05373 -1.201253,0.0388 z"
               id="path4657"
               transform="matrix(1,0,0,1.0697104,-4.1572692,-9.3248562)" />
            <path
               style="fill:#666666;stroke:none;stroke-width:1.00157;stroke-linecap:round;stroke-linejoin:round;stroke-miterlimit:4;stroke-dasharray:none;stroke-opacity:1;paint-order:fill markers stroke"
               d="m 12.422476,35.691624 c -0.493754,0.601115 -0.472803,1.602131 0.13589,2.105563 7.110107,0.0148 14.220215,0.02963 21.330323,0.04448 1.42358,0.793337 2.833975,1.61911 4.265675,2.392441 7.152158,0.0051 14.304315,0.01017 21.456473,0.01526 0.781244,-0.414297 0.832894,-1.629109 0.149689,-2.153456 -7.278305,-0.02769 -14.556612,-0.05534 -21.834918,-0.08296 -1.42651,-0.785755 -2.840247,-1.603379 -4.274766,-2.369224 -7.047657,0 -14.095312,0 -21.142968,0 l -0.0725,0.04066 z"
               id="path4618"
               transform="matrix(1,0,0,1.0697104,-4.1572692,-9.3248562)" />
            <path
               style="fill:#666666;stroke:none;stroke-width:1.00157;stroke-linecap:round;stroke-linejoin:round;stroke-miterlimit:4;stroke-dasharray:none;stroke-opacity:1;paint-order:fill markers stroke"
               d="m 35.951227,12.065623 c -5.756961,0.05715 -11.3338,2.784705 -15.158824,7.044331 -3.912949,4.192718 -6.172539,9.747836 -6.791852,15.414024 -0.02725,0.387315 0.54883,0.136702 0.782205,0.214549 6.329478,0.04053 12.65915,0.01891 18.988714,0.0246 1.482978,0.761376 2.912539,1.628872 4.382894,2.4103 6.809538,8.3e-5 13.619075,2.49e-4 20.428612,3.32e-4 0.223618,-0.309009 -0.0058,-0.845626 0.02987,-1.245088 C 58.195943,29.301345 55.522679,22.707462 50.680385,18.08249 48.625283,16.070848 46.158582,14.511052 43.491603,13.443836 41.107458,12.483231 38.518589,12.033852 35.951227,12.065623 Z m 0.320811,2.126506 c 1.614276,-0.01027 3.256645,0.173492 4.774004,0.746988 0.366795,0.30804 -0.126936,0.842012 -0.518233,0.627983 -1.700989,-0.480805 -3.478438,-0.597382 -5.233464,-0.584472 -0.343105,0.08968 -0.831341,-0.163515 -0.59194,-0.568887 0.370294,-0.384724 1.008616,-0.146049 1.484885,-0.221547 l 0.08313,-6.5e-5 h 6.65e-4 z m 7.463227,1.848231 c 0.979798,0.320444 1.784676,1.032536 2.635809,1.5935 1.629547,1.25188 3.052913,2.784654 4.225898,4.465695 0.190975,0.215707 0.391755,0.815453 -0.07436,0.819235 -0.530594,0.09451 -0.707183,-0.58569 -1.014888,-0.871582 -1.552233,-2.135389 -3.57686,-3.90232 -5.866464,-5.209205 -0.295227,-0.123347 -0.535532,-0.590104 -0.137838,-0.752833 0.07235,-0.03207 0.152187,-0.05317 0.231841,-0.04481 z"
               id="path4501"
               transform="matrix(1,0,0,1.0697104,-4.1572692,-9.3248562)" />
            <path
               style="fill:#666666;stroke:none;stroke-width:1.00157;stroke-linecap:round;stroke-linejoin:round;stroke-miterlimit:4;stroke-dasharray:none;stroke-opacity:1;paint-order:fill markers stroke"
               d="m 4.5455724,2.6549663 c 0.177207,1.1903136 0.6004215,2.3523913 0.910816,3.520475 1.2909888,4.3342037 3.2018609,8.6930287 6.6111826,11.7860477 1.062408,0.936002 2.239071,1.775769 3.543527,2.335293 0.436935,-0.198258 0.567377,-0.787707 0.893431,-1.122675 1.472461,-1.982678 3.162343,-3.824027 5.131831,-5.324057 0.0083,-0.375288 -0.741972,-0.288435 -1.025293,-0.475392 C 14.898152,11.573929 9.8103718,8.0889591 5.7420949,3.7258062 5.3894739,3.3548005 5.0619441,2.9558176 4.6860082,2.6088579 4.6410969,2.6293116 4.562842,2.5605685 4.5455724,2.6549663 Z"
               id="path4579"
               transform="matrix(1,0,0,1.0697104,-4.1572692,-9.3248562)" />
            <path
               d="m 30.952,6.805 c 1.828,-0.146 3.705,0.058 5.482,0.619 0.05,0.016 0.101,0.023 0.15,0.023 0.213,0 0.409,-0.136 0.477,-0.35 C 37.144,6.834 36.998,6.553 36.735,6.47 34.834,5.869 32.821,5.65 30.872,5.807 c -0.275,0.022 -0.48,0.264 -0.458,0.539 0.022,0.276 0.269,0.479 0.538,0.459 z"
               id="path824"
               style="stroke-width:1.03427" />
            <path
               d="m 39.309,8.675 c 2.554,1.438 4.808,3.65 6.517,6.397 0.095,0.152 0.258,0.236 0.425,0.236 0.091,0 0.182,-0.024 0.265,-0.076 0.234,-0.146 0.306,-0.454 0.16,-0.688 C 44.878,11.655 42.5,9.325 39.8,7.804 39.564,7.669 39.255,7.753 39.119,7.994 38.982,8.235 39.067,8.54 39.309,8.675 Z"
               id="path826"
               style="stroke-width:1.03427" />
            <path
               d="M 55.441,30.422 C 55.225,15.058 44.849,2.638 32.116,2.638 20.095,2.638 10.178,13.435 8.885,27.828 H 8.536 c -0.882,0 -1.573,0.929 -1.573,2.114 0,1.185 0.691,2.114 1.573,2.114 h 20.868 l 4.2,2.514 c 0.078,0.046 0.166,0.071 0.257,0.071 h 1.681 l 4.496,-10e-4 h 15.301 c 0.935,0 1.695,-0.949 1.695,-2.115 0.003,-1.143 -0.692,-2.039 -1.593,-2.103 z M 32.116,3.638 c 12.178,0 22.104,11.965 22.324,26.772 H 34.042 L 29.844,27.898 C 29.766,27.852 29.678,27.827 29.587,27.827 H 9.89 C 11.169,14 20.644,3.638 32.116,3.638 Z m 4.426,31.002 h 2.499 z m 18.8,-1 H 34 L 29.864,31.165 C 29.778,31.097 29.67,31.056 29.552,31.056 H 29.533 8.536 c -0.233,0 -0.573,-0.434 -0.573,-1.114 0,-0.68 0.34,-1.114 0.573,-1.114 h 20.913 l 4.198,2.512 c 0.078,0.046 0.166,0.071 0.257,0.071 h 21.438 c 0.329,0 0.695,0.458 0.695,1.115 0,0.656 -0.366,1.114 -0.695,1.114 z"
               id="path828"
               style="stroke-width:1.03427;fill:#000000;fill-opacity:1"
               sodipodi:nodetypes="cscsssccsccsccscccscscccsccscsssccssss" />
            <g
               id="g3712"
               transform="matrix(0.99953711,0.03254378,-0.02844039,0.99953711,1.3098217,-0.67948805)">
              <path
                 style="fill:none;stroke:#000000;stroke-width:1.0359;stroke-linecap:round;stroke-linejoin:miter;stroke-miterlimit:4;stroke-dasharray:none;stroke-opacity:1"
                 d="M 10.731568,13.330989 C 1.718895,9.7281861 -1.0139937,-3.2144572 -2.118753,-8.0621789"
                 id="path943"
                 sodipodi:nodetypes="cc" />
              <path
                 style="fill:none;stroke:#000000;stroke-width:1.0359;stroke-linecap:round;stroke-linejoin:miter;stroke-miterlimit:4;stroke-dasharray:none;stroke-opacity:1"
                 d="M 17.549129,5.2582117 C 5.6135852,2.9249127 -2.118753,-8.0621789 -2.118753,-8.0621789"
                 id="path943-3"
                 sodipodi:nodetypes="cc" />
              <path
                 style="fill:none;stroke:#000000;stroke-width:1.0359;stroke-linecap:round;stroke-linejoin:miter;stroke-miterlimit:4;stroke-dasharray:none;stroke-opacity:1"
                 d="M 17.549129,5.2582117 C 12.336333,9.2153848 10.304965,14.782093 10.731568,13.330989"
                 id="path943-3-6"
                 sodipodi:nodetypes="cc" />
            </g>
            <path
               style="fill:none;stroke:#000000;stroke-width:1.0359;stroke-linecap:round;stroke-linejoin:miter;stroke-miterlimit:4;stroke-dasharray:none;stroke-opacity:1"
               d="M 35.974601,34.232666 V 58.638112"
               id="path1284" />
            <path
               style="fill:none;stroke:#000000;stroke-width:1.0359;stroke-linecap:round;stroke-linejoin:miter;stroke-miterlimit:4;stroke-dasharray:none;stroke-opacity:1"
               d="M 39.489184,54.623157 35.974601,58.63811"
               id="path1284-6"
               sodipodi:nodetypes="cc" />
            <path
               style="fill:none;stroke:#000000;stroke-width:1.0359;stroke-linecap:round;stroke-linejoin:miter;stroke-miterlimit:4;stroke-dasharray:none;stroke-opacity:1"
               d="M 39.489184,34.300624 V 54.623157"
               id="path1284-3"
               sodipodi:nodetypes="cc" />
          </g>
        </g>
      </g>
      <text
         x="0"
         y="79"
         fill="#000000"
         font-size="5px"
         font-weight="bold"
         font-family="'Helvetica Neue', Helvetica, Arial-Unicode, Arial, Sans-serif"
         id="text836"
         style="stroke-width:1.06971">Created by Arya Icons</text>
      <text
         x="0"
         y="84"
         fill="#000000"
         font-size="5px"
         font-weight="bold"
         font-family="'Helvetica Neue', Helvetica, Arial-Unicode, Arial, Sans-serif"
         id="text838"
         style="stroke-width:1.06971">from the Noun Project</text>
    </g>
  </g>
</svg>
